<svg xmlns="http://www.w3.org/2000/svg" viewBox="0 0 24 24" width="24" height="24" color="#00c950" fill="#00C950">
    <defs />
    <path fill="#00C950" d="M3.361,20.639 C1.75,19.028 1.75,16.679 1.75,12 L1.75,12 C1.75,7.321 1.75,4.971 3.361,3.361 C4.972,1.75 7.321,1.75 12,1.75 C16.679,1.75 19.029,1.75 20.639,3.361 C22.25,4.972 22.25,7.321 22.25,12 C22.25,16.679 22.25,19.029 20.639,20.639 C19.028,22.25 16.679,22.25 12,22.25 C7.32,22.25 4.971,22.25 3.361,20.639 Z M12,3.25 C7.734,3.25 5.593,3.25 4.421,4.421 C3.25,5.592 3.25,7.734 3.25,12 C3.25,16.266 3.25,18.407 4.421,19.579 C5.592,20.75 7.734,20.75 12,20.75 C16.266,20.75 18.407,20.75 19.579,19.579 C20.75,18.408 20.75,16.266 20.75,12 C20.75,7.734 20.75,5.593 19.579,4.421 C18.408,3.25 16.266,3.25 12,3.25 Z M11.988,14.839 C11.505,14.832 11.015,14.581 10.571,14.112 L10.557,14.097 L8.959,12.314 C8.683,12.006 8.709,11.531 9.017,11.255 C9.326,10.978 9.8,11.005 10.076,11.313 L11.25,12.623 L11.25,7.039 C11.25,6.625 11.586,6.289 12,6.289 C12.414,6.289 12.75,6.625 12.75,7.039 L12.75,12.621 L13.915,11.314 C14.191,11.005 14.665,10.977 14.974,11.253 C15.283,11.529 15.311,12.003 15.035,12.312 L13.446,14.095 C13.029,14.573 12.517,14.839 12.009,14.839 Z M7.984,17.789 C7.57,17.789 7.234,17.453 7.234,17.039 C7.234,16.625 7.57,16.289 7.984,16.289 L15.984,16.289 C16.398,16.289 16.734,16.625 16.734,17.039 C16.734,17.453 16.398,17.789 15.984,17.789 Z" />
</svg>