<svg xmlns="http://www.w3.org/2000/svg" viewBox="0 0 24 24" width="24" height="24" color="#000000" fill="none">
    <defs />
    <path fill="#141B34" d="M8.176,13.885 C6.813,13.303 5.631,12.497 4.662,11.681 L2.812,13.531 C2.666,13.677 2.474,13.751 2.282,13.751 L2.281,13.751 C2.089,13.751 1.897,13.678 1.751,13.531 C1.458,13.238 1.458,12.763 1.751,12.47 L3.555,10.665 C2.392,9.502 1.725,8.517 1.658,8.416 C1.428,8.071 1.52,7.606 1.865,7.376 C2.21,7.146 2.675,7.239 2.905,7.584 C2.943,7.64 6.763,13.25 12.281,13.25 C17.799,13.25 21.619,7.64 21.657,7.583 C21.888,7.239 22.354,7.146 22.698,7.376 C23.042,7.606 23.135,8.071 22.906,8.415 C22.838,8.516 22.171,9.501 21.007,10.665 L22.812,12.47 C23.105,12.763 23.105,13.238 22.812,13.531 C22.666,13.677 22.474,13.751 22.282,13.751 L22.281,13.751 C22.089,13.751 21.897,13.678 21.751,13.531 L19.901,11.681 C18.932,12.496 17.749,13.303 16.386,13.884 L17.424,15.614 C17.637,15.969 17.522,16.43 17.167,16.643 C17.046,16.715 16.913,16.75 16.782,16.75 C16.527,16.75 16.279,16.62 16.138,16.386 L14.94,14.389 C14.106,14.616 13.218,14.749 12.281,14.749 L12.281,14.75 C11.345,14.75 10.456,14.617 9.622,14.39 L8.424,16.386 C8.283,16.62 8.035,16.75 7.78,16.75 C7.649,16.75 7.516,16.716 7.395,16.643 C7.04,16.43 6.925,15.969 7.138,15.614 Z" />
</svg>