<svg xmlns="http://www.w3.org/2000/svg" viewBox="0 0 24 24" width="24" height="24" color="#000000" fill="none">
    <defs />
    <path fill="#141B34" d="M12.281,4.25 C14.852,4.25 17.055,5.381 18.761,6.713 C20.468,8.046 21.73,9.62 22.436,10.609 L22.489,10.684 C22.742,11.036 23.031,11.438 23.031,12 C23.031,12.562 22.742,12.964 22.489,13.316 L22.436,13.391 C21.73,14.38 20.468,15.954 18.761,17.287 C17.055,18.619 14.852,19.75 12.281,19.75 C9.711,19.75 7.507,18.619 5.802,17.287 C4.094,15.954 2.833,14.38 2.127,13.391 L2.073,13.316 C1.82,12.964 1.531,12.562 1.531,12 C1.531,11.438 1.82,11.036 2.073,10.684 L2.127,10.609 C2.833,9.62 4.094,8.046 5.802,6.713 C7.507,5.381 9.711,4.25 12.281,4.25 Z M3.348,11.481 C3.185,11.71 3.107,11.821 3.061,11.91 C3.031,11.967 3.031,11.982 3.031,11.998 L3.031,12 L3.031,12.002 C3.031,12.018 3.031,12.033 3.061,12.09 C3.107,12.179 3.185,12.29 3.348,12.519 C4.008,13.445 5.174,14.894 6.725,16.105 C8.277,17.317 10.163,18.25 12.281,18.25 C14.4,18.25 16.285,17.317 17.838,16.105 C19.389,14.894 20.554,13.445 21.215,12.519 C21.378,12.29 21.456,12.179 21.502,12.09 C21.531,12.033 21.531,12.018 21.531,12.003 L21.531,12.002 L21.531,12 L21.531,11.998 L21.531,11.997 C21.531,11.982 21.531,11.967 21.502,11.91 C21.456,11.821 21.378,11.71 21.215,11.481 C20.554,10.555 19.389,9.106 17.838,7.895 C16.285,6.683 14.4,5.75 12.281,5.75 C10.163,5.75 8.277,6.683 6.725,7.895 C5.174,9.106 4.008,10.555 3.348,11.481 Z M12.281,15.75 C10.21,15.75 8.531,14.071 8.531,12 C8.531,9.929 10.21,8.25 12.281,8.25 C14.352,8.25 16.031,9.929 16.031,12 C16.031,14.071 14.352,15.75 12.281,15.75 Z M10.031,12 C10.031,13.243 11.039,14.25 12.281,14.25 C13.524,14.25 14.531,13.243 14.531,12 C14.531,10.757 13.524,9.75 12.281,9.75 C11.039,9.75 10.031,10.757 10.031,12 Z" />
</svg>